<svg xmlns="http://www.w3.org/2000/svg" width="49.039" height="36.779" viewBox="0 0 49.039 36.779">
  <g id="email" transform="translate(0 -64)">
    <g id="Grupo_2" data-name="Grupo 2" transform="translate(0 64)">
      <g id="Grupo_1" data-name="Grupo 1">
        <path id="Caminho_1" data-name="Caminho 1" d="M7.275,66.984c6.73,5.7,18.54,15.728,22.011,18.855a2.05,2.05,0,0,0,2.966,0c3.474-3.13,15.284-13.159,22.014-18.859a1.021,1.021,0,0,0,.144-1.41A4.057,4.057,0,0,0,51.2,64H10.338a4.057,4.057,0,0,0-3.207,1.574A1.021,1.021,0,0,0,7.275,66.984Z" transform="translate(-6.251 -64)" fill="#257589"/>
        <path id="Caminho_2" data-name="Caminho 2" d="M354.384,126.507a1.017,1.017,0,0,0-1.089.148c-4.408,3.736-10.215,8.673-14.6,12.44a1.021,1.021,0,0,0,.028,1.571c4.07,3.259,10.2,7.743,14.631,10.93a1.022,1.022,0,0,0,1.618-.829V127.434A1.021,1.021,0,0,0,354.384,126.507Z" transform="translate(-305.937 -120.434)" fill="#257589"/>
        <path id="Caminho_3" data-name="Caminho 3" d="M1.618,151.6c4.43-3.187,10.564-7.67,14.632-10.93a1.021,1.021,0,0,0,.028-1.571c-4.38-3.767-10.189-8.7-14.6-12.44A1.022,1.022,0,0,0,0,127.442v23.333a1.021,1.021,0,0,0,1.618.829Z" transform="translate(0 -120.442)" fill="#257589"/>
        <path id="Caminho_4" data-name="Caminho 4" d="M55.584,297.427c-4.277-3.06-12.156-8.765-16.859-12.582a1.024,1.024,0,0,0-1.315.023c-.923.805-1.7,1.484-2.243,1.976a4.137,4.137,0,0,1-5.7,0c-.546-.492-1.318-1.172-2.241-1.974a1.018,1.018,0,0,0-1.314-.023c-4.687,3.8-12.575,9.516-16.859,12.582a1.021,1.021,0,0,0-.154,1.526,4.094,4.094,0,0,0,2.987,1.311H52.75a4.1,4.1,0,0,0,2.988-1.311,1.022,1.022,0,0,0-.154-1.526Z" transform="translate(-7.798 -263.485)" fill="#257589"/>
      </g>
    </g>
  </g>
</svg>
