<svg xmlns="http://www.w3.org/2000/svg" width="48.482" height="46.908" viewBox="0 0 48.482 46.908">
  <g id="Page-1" transform="translate(0.003)">
    <g id="_003---Call" data-name="003---Call" transform="translate(-0.003)">
      <path id="Shape" d="M21.083,27.506c-4.629-4.479-5.675-8.958-5.91-10.753a1.577,1.577,0,0,1,.477-1.346L19.4,11.784a1.579,1.579,0,0,0,.236-2L13.667.82A1.7,1.7,0,0,0,11.5.231L1.925,4.594A1.6,1.6,0,0,0,1.005,6.2c.5,4.612,2.58,15.948,14.094,27.09s23.23,13.151,28,13.637a1.675,1.675,0,0,0,1.662-.89l4.51-9.265a1.589,1.589,0,0,0-.606-2.093L39.4,28.911a1.715,1.715,0,0,0-2.07.227l-3.745,3.625a1.7,1.7,0,0,1-1.391.462,19.828,19.828,0,0,1-11.113-5.719Z" transform="translate(-0.997 -0.029)" fill="#257589"/>
      <path id="Shape-2" data-name="Shape" d="M37.828,20.863a1.035,1.035,0,0,1-1.035-1.035,7.768,7.768,0,0,0-7.759-7.759,1.035,1.035,0,0,1,0-2.069,9.839,9.839,0,0,1,9.828,9.828A1.035,1.035,0,0,1,37.828,20.863Z" transform="translate(-0.547 -0.258)" fill="#257589"/>
      <path id="Shape-3" data-name="Shape" d="M43,16.035A1.035,1.035,0,0,1,41.966,15,12.946,12.946,0,0,0,29.035,2.069a1.035,1.035,0,0,1,0-2.069,15.017,15.017,0,0,1,15,15A1.035,1.035,0,0,1,43,16.035Z" transform="translate(4.447)" fill="#257589"/>
    </g>
  </g>
</svg>
